<?xml version="1.0" encoding="UTF-8"?>
<svg id="Capa_2" data-name="Capa 2" xmlns="http://www.w3.org/2000/svg" viewBox="0 0 74.82 74.81">
  <defs>
    <style>
      .cls-1 {
        fill: #fff;
      }
    </style>
  </defs>
  <g id="Layer_1" data-name="Layer 1">
    <g>
      <path d="M65.22,0H9.6C4.3,0,0,4.3,0,9.6v55.62c0,5.3,4.3,9.59,9.6,9.59h55.62c5.3,0,9.6-4.29,9.6-9.59V9.6c0-5.3-4.3-9.6-9.6-9.6Z"/>
      <polygon class="cls-1" points="22.91 70.37 22.57 70.22 10.12 62.87 9.99 18.77 23.03 26.13 22.91 70.37"/>
      <path class="cls-1" d="M64.77,28.41c0,.2-.07.38-.07.58-.02,6.52.02,13.03-.01,19.54l-10.58,6.1-14.42-11.53v19.94c-3.77,2.18-7.52,4.41-11.3,6.59-.15.09-1.28.76-1.34.7l-.06-39.72-.07-.22v-4.28l10.73-6.14,14.54,11.72.08-20.06,12.56-7.18c-.12,7.98-.04,15.98-.06,23.96Z"/>
    </g>
  </g>
</svg>