<?xml version="1.0" encoding="UTF-8"?>
<svg id="Capa_2" data-name="Capa 2" xmlns="http://www.w3.org/2000/svg" viewBox="0 0 351.91 76.96">
  <defs>
    <style>
      .cls-1 {
        fill: #fff;
      }
    </style>
  </defs>
  <g id="Layer_1" data-name="Layer 1">
    <g>
      <path class="cls-1" d="M65.22.38H9.6C4.3.38,0,4.68,0,9.98v55.62c0,5.3,4.3,9.59,9.6,9.59h55.62c5.3,0,9.6-4.29,9.6-9.59V9.98c0-5.3-4.3-9.6-9.6-9.6ZM22.91,70.75l-.34-.15-12.45-7.35-.13-44.1,13.04,7.36-.12,44.24ZM64.77,28.79c0,.2-.07.38-.07.58-.02,6.52.02,13.03-.01,19.54l-10.58,6.1-14.42-11.53v19.94c-3.77,2.18-7.52,4.41-11.3,6.59-.15.09-1.28.76-1.34.7l-.06-39.72-.07-.22v-4.28l10.73-6.14,14.54,11.72.08-20.06,12.56-7.18c-.12,7.98-.04,15.98-.06,23.96Z"/>
      <g>
        <path class="cls-1" d="M136.05,59.71h-27.48l-5.16,15.33h-16.29L113.74.46h17.61l26.41,74.58h-16.9l-4.81-15.33ZM131.7,46.85l-9.31-29.35-9.61,29.35h18.93Z"/>
        <path class="cls-1" d="M195.35,67.25c-.14.17-.47.68-1.01,1.52-.54.84-1.18,1.59-1.92,2.23-2.26,2.02-4.45,3.41-6.55,4.15-2.11.74-4.58,1.11-7.41,1.11-8.16,0-13.66-2.94-16.5-8.81-1.59-3.24-2.38-8.01-2.38-14.32V19.89h14.77v33.24c0,3.14.37,5.5,1.11,7.08,1.32,2.8,3.9,4.2,7.74,4.2,4.93,0,8.3-1.99,10.12-5.97.94-2.16,1.42-5.01,1.42-8.55v-30h14.62v55.15h-14.02v-7.79Z"/>
        <path class="cls-1" d="M268.33.56v74.48h-14.02v-7.64c-2.06,3.27-4.4,5.65-7.03,7.13-2.63,1.48-5.9,2.23-9.82,2.23-6.44,0-11.87-2.61-16.27-7.82-4.4-5.21-6.6-11.9-6.6-20.06,0-9.41,2.17-16.82,6.5-22.21,4.33-5.4,10.13-8.1,17.38-8.1,3.34,0,6.31.73,8.91,2.2,2.6,1.47,4.71,3.5,6.33,6.1V.56h14.62ZM229.47,47.82c0,5.09,1.01,9.16,3.04,12.19,1.99,3.07,5.03,4.6,9.11,4.6s7.18-1.52,9.31-4.55c2.13-3.04,3.19-6.97,3.19-11.79,0-6.75-1.7-11.57-5.11-14.47-2.09-1.75-4.52-2.63-7.29-2.63-4.22,0-7.31,1.59-9.28,4.78-1.97,3.19-2.96,7.14-2.96,11.87Z"/>
        <path class="cls-1" d="M290.12,0v13.31h-14.62V0h14.62ZM290.12,19.89v55.15h-14.62V19.89h14.62Z"/>
        <path class="cls-1" d="M344.93,26.87c4.66,5.84,6.98,12.73,6.98,20.7s-2.33,15.02-6.98,20.77c-4.66,5.75-11.72,8.63-21.2,8.63s-16.55-2.88-21.2-8.63c-4.66-5.75-6.98-12.68-6.98-20.77s2.33-14.86,6.98-20.7c4.66-5.84,11.72-8.75,21.2-8.75s16.55,2.92,21.2,8.75ZM323.68,30.31c-4.22,0-7.46,1.49-9.74,4.48-2.28,2.99-3.41,7.24-3.41,12.78s1.14,9.8,3.41,12.8c2.28,3,5.52,4.5,9.74,4.5s7.45-1.5,9.72-4.5c2.26-3,3.39-7.27,3.39-12.8s-1.13-9.79-3.39-12.78c-2.26-2.99-5.5-4.48-9.72-4.48Z"/>
      </g>
    </g>
  </g>
</svg>