<?xml version="1.0" encoding="UTF-8"?>
<svg id="Capa_2" data-name="Capa 2" xmlns="http://www.w3.org/2000/svg" viewBox="0 0 308.32 76.59">
  <defs>
    <style>
      .cls-1 {
        fill: #fff;
      }
    </style>
  </defs>
  <g id="Layer_1" data-name="Layer 1">
    <g>
      <path class="cls-1" d="M65.22,0H9.6C4.3,0,0,4.3,0,9.6v55.62c0,5.3,4.3,9.59,9.6,9.59h55.62c5.3,0,9.6-4.29,9.6-9.59V9.6c0-5.3-4.3-9.6-9.6-9.6ZM22.91,70.37l-.34-.15-12.45-7.35-.13-44.1,13.04,7.36-.12,44.24ZM64.77,28.41c0,.2-.07.38-.07.58-.02,6.52.02,13.03-.01,19.54l-10.58,6.1-14.42-11.53v19.94c-3.77,2.18-7.52,4.41-11.3,6.59-.15.09-1.28.76-1.34.7l-.06-39.72-.07-.22v-4.28l10.73-6.14,14.54,11.72.08-20.06,12.56-7.18c-.12,7.98-.04,15.98-.06,23.96Z"/>
      <g>
        <path class="cls-1" d="M90.37,0h15.61v61.28h37v13.43h-52.61V0Z"/>
        <path class="cls-1" d="M152.61,25.45c3.82-4.87,10.37-7.3,19.67-7.3,6.05,0,11.42,1.2,16.12,3.6,4.7,2.4,7.05,6.93,7.05,13.58v25.34c0,1.76.03,3.89.1,6.39.1,1.89.39,3.18.86,3.85.47.68,1.18,1.23,2.13,1.67v2.13h-15.71c-.44-1.12-.74-2.16-.91-3.14-.17-.98-.3-2.09-.41-3.34-1.99,2.16-4.29,4-6.89,5.52-3.11,1.79-6.62,2.69-10.54,2.69-5,0-9.13-1.43-12.39-4.28-3.26-2.86-4.89-6.9-4.89-12.14,0-6.79,2.62-11.71,7.86-14.75,2.87-1.66,7.1-2.84,12.67-3.55l4.92-.61c2.67-.34,4.58-.76,5.73-1.27,2.06-.88,3.09-2.25,3.09-4.11,0-2.26-.79-3.83-2.36-4.69-1.57-.86-3.88-1.29-6.92-1.29-3.41,0-5.83.84-7.25,2.53-1.01,1.25-1.69,2.94-2.03,5.07h-13.94c.3-4.83,1.66-8.8,4.06-11.91ZM163.36,64.27c1.35,1.11,3.01,1.67,4.97,1.67,3.11,0,5.97-.91,8.59-2.74,2.62-1.82,3.98-5.15,4.08-9.98v-5.37c-.91.58-1.83,1.04-2.76,1.39-.93.35-2.2.68-3.83.99l-3.24.61c-3.04.54-5.22,1.2-6.54,1.98-2.23,1.32-3.34,3.36-3.34,6.13,0,2.47.69,4.24,2.08,5.32Z"/>
        <path class="cls-1" d="M232.04,76.18c-4.56,0-8.23-.91-11-2.74-1.66-1.08-3.45-2.97-5.37-5.68v6.94h-14.14V.1h14.39v26.56c1.83-2.57,3.84-4.53,6.03-5.88,2.6-1.69,5.91-2.53,9.93-2.53,7.26,0,12.95,2.62,17.06,7.86,4.11,5.24,6.16,12,6.16,20.27s-2.03,15.7-6.08,21.34c-4.05,5.64-9.71,8.46-16.98,8.46ZM239.95,47.9c0-3.92-.51-7.16-1.52-9.73-1.93-4.87-5.47-7.3-10.64-7.3s-8.84,2.38-10.8,7.15c-1.01,2.53-1.52,5.81-1.52,9.83,0,4.73,1.05,8.65,3.14,11.76,2.09,3.11,5.29,4.66,9.58,4.66,3.72,0,6.61-1.5,8.67-4.51,2.06-3.01,3.09-6.96,3.09-11.86Z"/>
        <path class="cls-1" d="M299.35,22c4.32,2.77,6.81,7.54,7.45,14.29h-14.44c-.2-1.86-.73-3.33-1.57-4.41-1.59-1.96-4.29-2.94-8.11-2.94-3.14,0-5.38.49-6.72,1.47-1.34.98-2,2.13-2,3.45,0,1.66.71,2.86,2.13,3.6,1.42.78,6.44,2.11,15.05,4,5.74,1.35,10.05,3.4,12.92,6.13,2.84,2.77,4.26,6.23,4.26,10.39,0,5.47-2.04,9.94-6.11,13.41-4.07,3.46-10.37,5.2-18.88,5.2s-15.1-1.83-19.23-5.5c-4.14-3.67-6.21-8.34-6.21-14.01h14.65c.3,2.57.96,4.39,1.98,5.47,1.79,1.93,5.1,2.89,9.93,2.89,2.84,0,5.09-.42,6.77-1.27,1.67-.84,2.51-2.11,2.51-3.8s-.68-2.86-2.03-3.7c-1.35-.84-6.37-2.3-15.05-4.36-6.25-1.55-10.66-3.5-13.23-5.83-2.57-2.3-3.85-5.61-3.85-9.93,0-5.1,2-9.49,6.01-13.15,4-3.67,9.64-5.5,16.9-5.5s12.52,1.37,16.88,4.11Z"/>
      </g>
    </g>
  </g>
</svg>