<?xml version="1.0" encoding="UTF-8"?>
<svg id="Capa_2" xmlns="http://www.w3.org/2000/svg" version="1.1" viewBox="0 14 425.7 76">
  <!-- Generator: Adobe Illustrator 30.3.0, SVG Export Plug-In . SVG Version: 2.1.3 Build 182)  -->
  <defs>
    <style>
      .st0 {
        isolation: isolate;
      }

      .st1 {
        fill: #fff;
      }
    </style>
  </defs>
  <g id="Layer_1">
    <g>
      <path class="st1" d="M65.2,14.6H9.6C4.3,14.6,0,18.9,0,24.2v55.6c0,5.3,4.3,9.6,9.6,9.6h55.6c5.3,0,9.6-4.3,9.6-9.6V24.2c0-5.3-4.3-9.6-9.6-9.6ZM22.9,85l-.3-.2-12.4-7.3v-44.1c-.1,0,12.9,7.4,12.9,7.4,0,0-.1,44.2-.1,44.2ZM64.8,43c0,.2,0,.4,0,.6,0,6.5,0,13,0,19.5l-10.6,6.1-14.4-11.5v19.9c-3.8,2.2-7.5,4.4-11.3,6.6-.1,0-1.3.8-1.3.7v-39.7c0,0-.1-.2-.1-.2v-4.3l10.7-6.1,14.5,11.7v-20.1c0,0,12.6-7.2,12.6-7.2-.1,8,0,16,0,24Z"/>
      <g class="st0">
        <g class="st0">
          <path class="st1" d="M87.8,14.5h16.6l16.2,56.6,16.3-56.6h16.2l-25.4,74.6h-14.7L87.8,14.5Z"/>
        </g>
        <g class="st0">
          <path class="st1" d="M174.2,14.1v13.3h-14.6v-13.3h14.6ZM174.2,33.9v55.1h-14.6v-55.1h14.6Z"/>
        </g>
        <g class="st0">
          <path class="st1" d="M224.1,36.5c4.3,2.8,6.8,7.5,7.4,14.3h-14.4c-.2-1.9-.7-3.3-1.6-4.4-1.6-2-4.3-2.9-8.1-2.9s-5.4.5-6.7,1.5c-1.3,1-2,2.1-2,3.4s.7,2.9,2.1,3.6c1.4.8,6.4,2.1,15,4,5.7,1.3,10,3.4,12.9,6.1,2.8,2.8,4.2,6.2,4.2,10.4s-2,9.9-6.1,13.4c-4.1,3.5-10.3,5.2-18.8,5.2s-15.1-1.8-19.2-5.5c-4.1-3.7-6.2-8.3-6.2-14h14.6c.3,2.6,1,4.4,2,5.5,1.8,1.9,5.1,2.9,9.9,2.9s5.1-.4,6.8-1.3c1.7-.8,2.5-2.1,2.5-3.8s-.7-2.8-2-3.7c-1.3-.8-6.4-2.3-15-4.4-6.2-1.6-10.6-3.5-13.2-5.8-2.6-2.3-3.8-5.6-3.8-9.9s2-9.5,6-13.1c4-3.7,9.6-5.5,16.9-5.5s12.5,1.4,16.8,4.1Z"/>
          <path class="st1" d="M275,81.3c-.1.2-.5.7-1,1.5-.5.8-1.2,1.6-1.9,2.2-2.3,2-4.4,3.4-6.6,4.1-2.1.7-4.6,1.1-7.4,1.1-8.2,0-13.7-2.9-16.5-8.8-1.6-3.2-2.4-8-2.4-14.3v-33.2h14.8v33.2c0,3.1.4,5.5,1.1,7.1,1.3,2.8,3.9,4.2,7.7,4.2s8.3-2,10.1-6c.9-2.2,1.4-5,1.4-8.5v-30h14.6v55.1h-14v-7.8Z"/>
          <path class="st1" d="M300.8,39.9c3.8-4.9,10.4-7.3,19.6-7.3s11.4,1.2,16.1,3.6c4.7,2.4,7,6.9,7,13.6v25.3c0,1.8,0,3.9.1,6.4.1,1.9.4,3.2.9,3.8.5.7,1.2,1.2,2.1,1.7v2.1h-15.7c-.4-1.1-.7-2.2-.9-3.1-.2-1-.3-2.1-.4-3.3-2,2.2-4.3,4-6.9,5.5-3.1,1.8-6.6,2.7-10.5,2.7s-9.1-1.4-12.4-4.3c-3.3-2.8-4.9-6.9-4.9-12.1s2.6-11.7,7.8-14.7c2.9-1.7,7.1-2.8,12.6-3.5l4.9-.6c2.7-.3,4.6-.8,5.7-1.3,2.1-.9,3.1-2.2,3.1-4.1s-.8-3.8-2.4-4.7-3.9-1.3-6.9-1.3-5.8.8-7.2,2.5c-1,1.2-1.7,2.9-2,5.1h-13.9c.3-4.8,1.7-8.8,4-11.9ZM311.5,78.7c1.3,1.1,3,1.7,5,1.7,3.1,0,6-.9,8.6-2.7,2.6-1.8,4-5.1,4.1-10v-5.4c-.9.6-1.8,1-2.8,1.4-.9.4-2.2.7-3.8,1l-3.2.6c-3,.5-5.2,1.2-6.5,2-2.2,1.3-3.3,3.4-3.3,6.1s.7,4.2,2.1,5.3Z"/>
        </g>
        <g class="st0">
          <path class="st1" d="M352.5,14.5h14.4v74.6h-14.4V14.5Z"/>
        </g>
        <g class="st0">
          <path class="st1" d="M412.8,36.5c4.3,2.8,6.8,7.5,7.4,14.3h-14.4c-.2-1.9-.7-3.3-1.6-4.4-1.6-2-4.3-2.9-8.1-2.9s-5.4.5-6.7,1.5c-1.3,1-2,2.1-2,3.4s.7,2.9,2.1,3.6c1.4.8,6.4,2.1,15,4,5.7,1.3,10,3.4,12.9,6.1,2.8,2.8,4.2,6.2,4.2,10.4s-2,9.9-6.1,13.4c-4.1,3.5-10.3,5.2-18.8,5.2s-15.1-1.8-19.2-5.5-6.2-8.3-6.2-14h14.6c.3,2.6,1,4.4,2,5.5,1.8,1.9,5.1,2.9,9.9,2.9s5.1-.4,6.8-1.3c1.7-.8,2.5-2.1,2.5-3.8s-.7-2.8-2-3.7c-1.3-.8-6.4-2.3-15-4.4-6.2-1.6-10.6-3.5-13.2-5.8-2.6-2.3-3.8-5.6-3.8-9.9s2-9.5,6-13.1c4-3.7,9.6-5.5,16.9-5.5s12.5,1.4,16.8,4.1Z"/>
        </g>
      </g>
    </g>
  </g>
</svg>