<?xml version="1.0" encoding="UTF-8"?>
<svg id="Capa_2" data-name="Capa 2" xmlns="http://www.w3.org/2000/svg" viewBox="0 0 54.84 65.92">
  <defs>
    <style>
      .cls-1 {
        fill: #fff;
      }
    </style>
  </defs>
  <g id="Layer_1" data-name="Layer 1">
    <g>
      <polygon class="cls-1" points="12.92 65.92 12.58 65.77 .13 58.42 0 14.32 13.04 21.68 12.92 65.92"/>
      <path class="cls-1" d="M54.78,23.96c0,.2-.07.38-.07.58-.02,6.52.02,13.03-.01,19.54l-10.58,6.1-14.42-11.53v19.94c-3.77,2.18-7.52,4.41-11.3,6.59-.15.09-1.28.76-1.34.7l-.06-39.72-.07-.22v-4.28l10.73-6.14,14.54,11.72.08-20.06L54.84,0c-.12,7.98-.04,15.98-.06,23.96Z"/>
    </g>
  </g>
</svg>